<svg width="480" height="240" viewBox="0 0 480 240" fill="none" xmlns="http://www.w3.org/2000/svg">
<path d="M165.333 137.376V169.91C165.333 171.324 164.772 172.681 163.771 173.681C162.771 174.681 161.415 175.243 160 175.243C158.586 175.243 157.229 174.681 156.229 173.681C155.229 172.681 154.667 171.324 154.667 169.91V137.376C148.663 138.61 142.417 137.738 136.98 134.906C131.544 132.074 127.249 127.456 124.819 121.829C122.388 116.202 121.971 109.909 123.636 104.01C125.301 98.1108 128.948 92.9656 133.963 89.4402C135.284 83.5197 138.583 78.2261 143.316 74.4324C148.049 70.6386 153.934 68.5713 160 68.5713C166.066 68.5713 171.951 70.6386 176.684 74.4324C181.418 78.2261 184.717 83.5197 186.037 89.4402C191.052 92.9656 194.699 98.1108 196.364 104.01C198.03 109.909 197.612 116.202 195.182 121.829C192.751 127.456 188.456 132.074 183.02 134.906C177.584 137.738 171.338 138.61 165.333 137.376V137.376Z" fill="#ADC128"/>
</svg>
