<svg width="480" height="240" viewBox="0 0 480 240" fill="none" xmlns="http://www.w3.org/2000/svg">
<path d="M114.804 77.76C114.966 75.3298 116.046 73.0521 117.825 71.3885C119.604 69.7248 121.949 68.7995 124.385 68.8H131.61C134.046 68.7995 136.391 69.7248 138.17 71.3885C139.949 73.0521 141.029 75.3298 141.191 77.76L146.734 160.96C146.821 162.271 146.639 163.587 146.197 164.825C145.756 166.062 145.065 167.197 144.167 168.157C143.27 169.117 142.185 169.882 140.979 170.406C139.774 170.929 138.473 171.199 137.159 171.2H118.836C117.522 171.199 116.222 170.929 115.016 170.406C113.811 169.882 112.726 169.117 111.828 168.157C110.93 167.197 110.239 166.062 109.798 164.825C109.357 163.587 109.174 162.271 109.262 160.96L114.804 77.76V77.76ZM149.959 171.2C152.174 168.256 153.39 164.525 153.121 160.538L149.786 110.49L173.857 88.8192C174.317 88.4042 174.887 88.1316 175.499 88.0344C176.11 87.9373 176.737 88.0197 177.303 88.2718C177.869 88.5238 178.349 88.9347 178.686 89.4545C179.023 89.9743 179.202 90.5806 179.201 91.2V112.813L205.857 88.8192C206.317 88.4042 206.887 88.1316 207.499 88.0344C208.11 87.9373 208.737 88.0197 209.303 88.2718C209.869 88.5238 210.349 88.9347 210.686 89.4545C211.023 89.9743 211.202 90.5806 211.201 91.2V161.6C211.201 164.146 210.189 166.588 208.389 168.388C206.589 170.189 204.147 171.2 201.601 171.2H149.953H149.959ZM198.401 164.8V137.92C198.401 136.562 197.861 135.26 196.901 134.3C195.941 133.339 194.639 132.8 193.281 132.8H171.521C170.163 132.8 168.861 133.339 167.9 134.3C166.94 135.26 166.401 136.562 166.401 137.92V164.8H198.401V164.8Z" fill="#ADC128"/>
</svg>
