<svg width="480" height="240" viewBox="0 0 480 240" fill="none" xmlns="http://www.w3.org/2000/svg">
<path d="M112.001 152C109.778 152 108.178 151.022 107.201 149.067C106.223 147.111 106.401 145.245 107.734 143.467L129.067 115.067C130.134 113.645 131.556 112.933 133.334 112.933C135.112 112.933 136.534 113.645 137.601 115.067L154.134 137.067C155.023 138.311 156.178 139.022 157.601 139.2C159.023 139.378 160.356 139.022 161.601 138.133C162.756 137.245 163.446 136.133 163.67 134.8C163.89 133.467 163.645 132.178 162.934 130.933L150.667 114.667L166.401 93.7334C167.467 92.3112 168.889 91.6001 170.667 91.6001C172.445 91.6001 173.867 92.3112 174.934 93.7334L212.267 143.467C213.601 145.245 213.778 147.111 212.801 149.067C211.823 151.022 210.223 152 208.001 152H112.001Z" fill="#ADC128"/>
</svg>
