<svg width="480" height="240" viewBox="0 0 480 240" fill="none" xmlns="http://www.w3.org/2000/svg">
<path d="M207.999 72.0001V82.6668C207.999 92.5682 204.066 102.064 197.065 109.065C190.063 116.067 180.567 120 170.666 120H165.333V125.333H191.999V162.667C191.999 165.496 190.876 168.209 188.875 170.209C186.875 172.21 184.162 173.333 181.333 173.333H138.666C135.837 173.333 133.124 172.21 131.124 170.209C129.123 168.209 127.999 165.496 127.999 162.667V125.333H154.666V109.333C154.666 99.432 158.599 89.9361 165.601 82.9348C172.602 75.9334 182.098 72.0001 191.999 72.0001H207.999ZM125.333 66.6668C131.733 66.6616 138.04 68.1941 143.724 71.1354C149.408 74.0767 154.302 78.3406 157.994 83.5681C152.359 90.9738 149.315 100.027 149.333 109.333V114.667H146.666C136.057 114.667 125.883 110.452 118.382 102.951C110.88 95.4496 106.666 85.2754 106.666 74.6668V66.6668H125.333Z" fill="#ADC128"/>
</svg>
