<svg width="480" height="240" viewBox="0 0 480 240" fill="none" xmlns="http://www.w3.org/2000/svg">
<path d="M130.132 98.6667V94.4C130.132 88.742 132.38 83.3158 136.381 79.315C140.382 75.3143 145.808 73.0667 151.466 73.0667C157.124 73.0667 162.55 75.3143 166.551 79.315C170.552 83.3158 172.799 88.742 172.799 94.4V143.834L192.98 123.652L190.019 112.602L190.011 112.55H190.002C189.76 111.642 189.825 110.679 190.186 109.811C190.548 108.943 191.186 108.219 192.001 107.751C192.816 107.283 193.764 107.098 194.695 107.223C195.627 107.349 196.491 107.779 197.153 108.446L214.22 125.513C214.884 126.174 215.311 127.036 215.436 127.965C215.562 128.894 215.377 129.838 214.912 130.652C214.447 131.466 213.727 132.104 212.863 132.467C211.999 132.831 211.039 132.9 210.132 132.663L210.047 132.638L199.014 129.685L172.799 155.9V158.4C172.799 160.663 171.9 162.834 170.3 164.434C168.699 166.034 166.529 166.933 164.266 166.933H138.666C136.403 166.933 134.232 166.034 132.632 164.434C131.032 162.834 130.132 160.663 130.132 158.4V154.441L110.779 135.087C106.783 131.083 104.539 125.657 104.539 120C104.539 114.343 106.783 108.917 110.779 104.913C112.758 102.93 115.11 101.357 117.699 100.285C120.288 99.2127 123.064 98.6629 125.866 98.6667H130.132ZM130.132 107.2H125.866C123.333 107.199 120.857 107.949 118.751 109.355C116.645 110.762 115.004 112.761 114.035 115.101C113.065 117.44 112.812 120.015 113.306 122.499C113.801 124.982 115.021 127.264 116.812 129.054L130.132 142.366V107.2ZM164.266 98.6667V94.4C164.266 91.0052 162.917 87.7495 160.517 85.349C158.116 82.9486 154.861 81.6 151.466 81.6C148.071 81.6 144.815 82.9486 142.415 85.349C140.014 87.7495 138.666 91.0052 138.666 94.4V98.6667H164.266Z" fill="#ADC128"/>
</svg>
